<mxfile host="app.diagrams.net" agent="Mozilla/5.0 (Windows NT 10.0; Win64; x64) AppleWebKit/537.36 (KHTML, like Gecko) Chrome/141.0.0.0 Safari/537.36 Edg/141.0.0.0" version="28.2.5">
  <diagram name="Page-1" id="IwORPIcyvNLinGr_qM0y">
    <mxGraphModel dx="1037" dy="560" grid="0" gridSize="10" guides="1" tooltips="1" connect="1" arrows="1" fold="1" page="1" pageScale="1" pageWidth="1654" pageHeight="1169" math="0" shadow="0">
      <root>
        <mxCell id="0" />
        <mxCell id="1" parent="0" />
        <mxCell id="M4vAJLtBl9Fa8xEk3J6I-4" style="edgeStyle=orthogonalEdgeStyle;rounded=0;orthogonalLoop=1;jettySize=auto;html=1;entryX=0;entryY=0.5;entryDx=0;entryDy=0;startArrow=classic;startFill=1;" edge="1" parent="1" source="M4vAJLtBl9Fa8xEk3J6I-1" target="M4vAJLtBl9Fa8xEk3J6I-2">
          <mxGeometry relative="1" as="geometry" />
        </mxCell>
        <mxCell id="M4vAJLtBl9Fa8xEk3J6I-1" value="DEV 1" style="rounded=1;whiteSpace=wrap;html=1;" vertex="1" parent="1">
          <mxGeometry x="619" y="308.5" width="81" height="49" as="geometry" />
        </mxCell>
        <mxCell id="M4vAJLtBl9Fa8xEk3J6I-5" style="edgeStyle=orthogonalEdgeStyle;rounded=0;orthogonalLoop=1;jettySize=auto;html=1;entryX=0;entryY=0.5;entryDx=0;entryDy=0;startArrow=classic;startFill=1;" edge="1" parent="1" source="M4vAJLtBl9Fa8xEk3J6I-2" target="M4vAJLtBl9Fa8xEk3J6I-3">
          <mxGeometry relative="1" as="geometry" />
        </mxCell>
        <mxCell id="M4vAJLtBl9Fa8xEk3J6I-2" value="DEV 2" style="rounded=1;whiteSpace=wrap;html=1;" vertex="1" parent="1">
          <mxGeometry x="821" y="308.5" width="81" height="49" as="geometry" />
        </mxCell>
        <mxCell id="M4vAJLtBl9Fa8xEk3J6I-3" value="DEV 3" style="rounded=1;whiteSpace=wrap;html=1;" vertex="1" parent="1">
          <mxGeometry x="1006" y="308.5" width="81" height="49" as="geometry" />
        </mxCell>
        <mxCell id="M4vAJLtBl9Fa8xEk3J6I-10" style="edgeStyle=orthogonalEdgeStyle;rounded=0;orthogonalLoop=1;jettySize=auto;html=1;entryX=0;entryY=0.5;entryDx=0;entryDy=0;startArrow=classic;startFill=1;" edge="1" parent="1" source="M4vAJLtBl9Fa8xEk3J6I-8" target="M4vAJLtBl9Fa8xEk3J6I-1">
          <mxGeometry relative="1" as="geometry" />
        </mxCell>
        <mxCell id="M4vAJLtBl9Fa8xEk3J6I-8" value="&lt;font style=&quot;font-size: 15px;&quot;&gt;&lt;b&gt;GW&lt;/b&gt;&lt;/font&gt;" style="ellipse;whiteSpace=wrap;html=1;aspect=fixed;" vertex="1" parent="1">
          <mxGeometry x="408" y="293" width="80" height="80" as="geometry" />
        </mxCell>
        <mxCell id="M4vAJLtBl9Fa8xEk3J6I-28" value="" style="group" vertex="1" connectable="0" parent="1">
          <mxGeometry x="429" y="758" width="644" height="32" as="geometry" />
        </mxCell>
        <mxCell id="M4vAJLtBl9Fa8xEk3J6I-17" value="" style="endArrow=baseDash;html=1;rounded=0;startArrow=baseDash;startFill=0;endFill=0;strokeWidth=2;" edge="1" parent="M4vAJLtBl9Fa8xEk3J6I-28">
          <mxGeometry width="50" height="50" relative="1" as="geometry">
            <mxPoint x="165" as="sourcePoint" />
            <mxPoint x="36" as="targetPoint" />
          </mxGeometry>
        </mxCell>
        <mxCell id="M4vAJLtBl9Fa8xEk3J6I-18" value="&lt;b&gt;&lt;font style=&quot;font-size: 15px;&quot;&gt;t0&lt;/font&gt;&lt;/b&gt;" style="text;html=1;align=center;verticalAlign=middle;whiteSpace=wrap;rounded=0;" vertex="1" parent="M4vAJLtBl9Fa8xEk3J6I-28">
          <mxGeometry y="2" width="60" height="30" as="geometry" />
        </mxCell>
        <mxCell id="M4vAJLtBl9Fa8xEk3J6I-19" value="&lt;b&gt;&lt;font style=&quot;font-size: 15px;&quot;&gt;t1 =t0+60&lt;/font&gt;&lt;/b&gt;" style="text;html=1;align=center;verticalAlign=middle;whiteSpace=wrap;rounded=0;" vertex="1" parent="M4vAJLtBl9Fa8xEk3J6I-28">
          <mxGeometry x="134" y="2" width="92" height="30" as="geometry" />
        </mxCell>
        <mxCell id="M4vAJLtBl9Fa8xEk3J6I-20" value="" style="endArrow=baseDash;html=1;rounded=0;startArrow=baseDash;startFill=0;endFill=0;strokeWidth=2;" edge="1" parent="M4vAJLtBl9Fa8xEk3J6I-28">
          <mxGeometry width="50" height="50" relative="1" as="geometry">
            <mxPoint x="295" as="sourcePoint" />
            <mxPoint x="166" as="targetPoint" />
          </mxGeometry>
        </mxCell>
        <mxCell id="M4vAJLtBl9Fa8xEk3J6I-22" value="&lt;b&gt;&lt;font style=&quot;font-size: 15px;&quot;&gt;t2=t1+60&lt;/font&gt;&lt;/b&gt;" style="text;html=1;align=center;verticalAlign=middle;whiteSpace=wrap;rounded=0;" vertex="1" parent="M4vAJLtBl9Fa8xEk3J6I-28">
          <mxGeometry x="264" y="2" width="92" height="30" as="geometry" />
        </mxCell>
        <mxCell id="M4vAJLtBl9Fa8xEk3J6I-23" value="" style="endArrow=baseDash;html=1;rounded=0;startArrow=classic;startFill=1;endFill=0;strokeWidth=2;dashed=1;" edge="1" parent="M4vAJLtBl9Fa8xEk3J6I-28">
          <mxGeometry width="50" height="50" relative="1" as="geometry">
            <mxPoint x="608" as="sourcePoint" />
            <mxPoint x="424" as="targetPoint" />
          </mxGeometry>
        </mxCell>
        <mxCell id="M4vAJLtBl9Fa8xEk3J6I-25" value="&lt;b&gt;&lt;font style=&quot;font-size: 15px;&quot;&gt;tn = t(n-1)+60&lt;/font&gt;&lt;/b&gt;" style="text;html=1;align=center;verticalAlign=middle;whiteSpace=wrap;rounded=0;" vertex="1" parent="M4vAJLtBl9Fa8xEk3J6I-28">
          <mxGeometry x="408" y="2" width="101" height="30" as="geometry" />
        </mxCell>
        <mxCell id="M4vAJLtBl9Fa8xEk3J6I-26" value="" style="endArrow=baseDash;html=1;rounded=0;startArrow=baseDash;startFill=0;endFill=0;strokeWidth=2;dashed=1;" edge="1" parent="M4vAJLtBl9Fa8xEk3J6I-28">
          <mxGeometry width="50" height="50" relative="1" as="geometry">
            <mxPoint x="424" as="sourcePoint" />
            <mxPoint x="295" as="targetPoint" />
          </mxGeometry>
        </mxCell>
        <mxCell id="M4vAJLtBl9Fa8xEk3J6I-27" value="&lt;b&gt;&lt;font style=&quot;font-size: 15px;&quot;&gt;t&lt;/font&gt;&lt;/b&gt;" style="text;html=1;align=center;verticalAlign=middle;whiteSpace=wrap;rounded=0;" vertex="1" parent="M4vAJLtBl9Fa8xEk3J6I-28">
          <mxGeometry x="584" width="60" height="30" as="geometry" />
        </mxCell>
        <mxCell id="M4vAJLtBl9Fa8xEk3J6I-30" value="" style="group" vertex="1" connectable="0" parent="1">
          <mxGeometry x="444" y="587" width="644" height="32" as="geometry" />
        </mxCell>
        <mxCell id="M4vAJLtBl9Fa8xEk3J6I-31" value="" style="endArrow=baseDash;html=1;rounded=0;startArrow=baseDash;startFill=0;endFill=0;strokeWidth=2;" edge="1" parent="M4vAJLtBl9Fa8xEk3J6I-30">
          <mxGeometry width="50" height="50" relative="1" as="geometry">
            <mxPoint x="165" as="sourcePoint" />
            <mxPoint x="36" as="targetPoint" />
          </mxGeometry>
        </mxCell>
        <mxCell id="M4vAJLtBl9Fa8xEk3J6I-32" value="&lt;b&gt;&lt;font style=&quot;font-size: 15px;&quot;&gt;t0&lt;/font&gt;&lt;/b&gt;" style="text;html=1;align=center;verticalAlign=middle;whiteSpace=wrap;rounded=0;" vertex="1" parent="M4vAJLtBl9Fa8xEk3J6I-30">
          <mxGeometry y="2" width="60" height="30" as="geometry" />
        </mxCell>
        <mxCell id="M4vAJLtBl9Fa8xEk3J6I-33" value="&lt;b&gt;&lt;font style=&quot;font-size: 15px;&quot;&gt;t1 =t0+60&lt;/font&gt;&lt;/b&gt;" style="text;html=1;align=center;verticalAlign=middle;whiteSpace=wrap;rounded=0;" vertex="1" parent="M4vAJLtBl9Fa8xEk3J6I-30">
          <mxGeometry x="134" y="2" width="92" height="30" as="geometry" />
        </mxCell>
        <mxCell id="M4vAJLtBl9Fa8xEk3J6I-34" value="" style="endArrow=baseDash;html=1;rounded=0;startArrow=baseDash;startFill=0;endFill=0;strokeWidth=2;" edge="1" parent="M4vAJLtBl9Fa8xEk3J6I-30">
          <mxGeometry width="50" height="50" relative="1" as="geometry">
            <mxPoint x="295" as="sourcePoint" />
            <mxPoint x="166" as="targetPoint" />
          </mxGeometry>
        </mxCell>
        <mxCell id="M4vAJLtBl9Fa8xEk3J6I-35" value="&lt;b&gt;&lt;font style=&quot;font-size: 15px;&quot;&gt;t2=t1+60&lt;/font&gt;&lt;/b&gt;" style="text;html=1;align=center;verticalAlign=middle;whiteSpace=wrap;rounded=0;" vertex="1" parent="M4vAJLtBl9Fa8xEk3J6I-30">
          <mxGeometry x="264" y="2" width="92" height="30" as="geometry" />
        </mxCell>
        <mxCell id="M4vAJLtBl9Fa8xEk3J6I-36" value="" style="endArrow=baseDash;html=1;rounded=0;startArrow=classic;startFill=1;endFill=0;strokeWidth=2;dashed=1;" edge="1" parent="M4vAJLtBl9Fa8xEk3J6I-30">
          <mxGeometry width="50" height="50" relative="1" as="geometry">
            <mxPoint x="608" as="sourcePoint" />
            <mxPoint x="424" as="targetPoint" />
          </mxGeometry>
        </mxCell>
        <mxCell id="M4vAJLtBl9Fa8xEk3J6I-37" value="&lt;b&gt;&lt;font style=&quot;font-size: 15px;&quot;&gt;tn = t(n-1)+60&lt;/font&gt;&lt;/b&gt;" style="text;html=1;align=center;verticalAlign=middle;whiteSpace=wrap;rounded=0;" vertex="1" parent="M4vAJLtBl9Fa8xEk3J6I-30">
          <mxGeometry x="408" y="2" width="101" height="30" as="geometry" />
        </mxCell>
        <mxCell id="M4vAJLtBl9Fa8xEk3J6I-38" value="" style="endArrow=baseDash;html=1;rounded=0;startArrow=baseDash;startFill=0;endFill=0;strokeWidth=2;dashed=1;" edge="1" parent="M4vAJLtBl9Fa8xEk3J6I-30">
          <mxGeometry width="50" height="50" relative="1" as="geometry">
            <mxPoint x="424" as="sourcePoint" />
            <mxPoint x="295" as="targetPoint" />
          </mxGeometry>
        </mxCell>
        <mxCell id="M4vAJLtBl9Fa8xEk3J6I-39" value="&lt;b&gt;&lt;font style=&quot;font-size: 15px;&quot;&gt;t&lt;/font&gt;&lt;/b&gt;" style="text;html=1;align=center;verticalAlign=middle;whiteSpace=wrap;rounded=0;" vertex="1" parent="M4vAJLtBl9Fa8xEk3J6I-30">
          <mxGeometry x="584" width="60" height="30" as="geometry" />
        </mxCell>
        <mxCell id="M4vAJLtBl9Fa8xEk3J6I-51" value="&lt;b&gt;&lt;font style=&quot;font-size: 15px; color: rgb(130, 255, 26);&quot;&gt;t0&#39;&lt;/font&gt;&lt;/b&gt;" style="text;html=1;align=center;verticalAlign=middle;whiteSpace=wrap;rounded=0;" vertex="1" parent="M4vAJLtBl9Fa8xEk3J6I-30">
          <mxGeometry x="67" y="2" width="60" height="30" as="geometry" />
        </mxCell>
        <mxCell id="M4vAJLtBl9Fa8xEk3J6I-55" value="&lt;b&gt;&lt;font style=&quot;font-size: 15px; color: rgb(208, 177, 83);&quot;&gt;t1&#39;&lt;/font&gt;&lt;/b&gt;" style="text;html=1;align=center;verticalAlign=middle;whiteSpace=wrap;rounded=0;" vertex="1" parent="M4vAJLtBl9Fa8xEk3J6I-30">
          <mxGeometry x="204" y="2" width="60" height="30" as="geometry" />
        </mxCell>
        <mxCell id="M4vAJLtBl9Fa8xEk3J6I-58" value="&lt;b&gt;&lt;font style=&quot;font-size: 15px; color: rgb(255, 51, 51);&quot;&gt;t2&#39;&lt;/font&gt;&lt;/b&gt;" style="text;html=1;align=center;verticalAlign=middle;whiteSpace=wrap;rounded=0;" vertex="1" parent="M4vAJLtBl9Fa8xEk3J6I-30">
          <mxGeometry x="340" y="1" width="60" height="30" as="geometry" />
        </mxCell>
        <mxCell id="M4vAJLtBl9Fa8xEk3J6I-40" value="" style="shape=flexArrow;endArrow=classic;html=1;rounded=0;fillColor=#d5e8d4;strokeColor=#82b366;" edge="1" parent="1">
          <mxGeometry width="50" height="50" relative="1" as="geometry">
            <mxPoint x="542" y="522" as="sourcePoint" />
            <mxPoint x="542" y="585" as="targetPoint" />
          </mxGeometry>
        </mxCell>
        <mxCell id="M4vAJLtBl9Fa8xEk3J6I-52" value="CALL" style="text;html=1;align=center;verticalAlign=middle;whiteSpace=wrap;rounded=0;fillColor=#d5e8d4;strokeColor=#82b366;fontStyle=1" vertex="1" parent="1">
          <mxGeometry x="510" y="486" width="60" height="30" as="geometry" />
        </mxCell>
        <mxCell id="M4vAJLtBl9Fa8xEk3J6I-53" value="" style="shape=flexArrow;endArrow=classic;html=1;rounded=0;fillColor=#fff2cc;strokeColor=#d6b656;" edge="1" parent="1">
          <mxGeometry width="50" height="50" relative="1" as="geometry">
            <mxPoint x="676" y="522" as="sourcePoint" />
            <mxPoint x="676" y="585" as="targetPoint" />
          </mxGeometry>
        </mxCell>
        <mxCell id="M4vAJLtBl9Fa8xEk3J6I-54" value="ENDCALL" style="text;html=1;align=center;verticalAlign=middle;whiteSpace=wrap;rounded=0;fillColor=#fff2cc;strokeColor=#d6b656;fontStyle=1" vertex="1" parent="1">
          <mxGeometry x="637" y="486" width="74" height="30" as="geometry" />
        </mxCell>
        <mxCell id="M4vAJLtBl9Fa8xEk3J6I-56" value="" style="shape=flexArrow;endArrow=classic;html=1;rounded=0;fillColor=#f8cecc;strokeColor=#b85450;" edge="1" parent="1">
          <mxGeometry width="50" height="50" relative="1" as="geometry">
            <mxPoint x="812" y="522" as="sourcePoint" />
            <mxPoint x="812" y="585" as="targetPoint" />
          </mxGeometry>
        </mxCell>
        <mxCell id="M4vAJLtBl9Fa8xEk3J6I-57" value="RESET" style="text;html=1;align=center;verticalAlign=middle;whiteSpace=wrap;rounded=0;fillColor=#f8cecc;strokeColor=#b85450;fontStyle=1" vertex="1" parent="1">
          <mxGeometry x="773" y="486" width="74" height="30" as="geometry" />
        </mxCell>
        <mxCell id="M4vAJLtBl9Fa8xEk3J6I-59" value="" style="group" vertex="1" connectable="0" parent="1">
          <mxGeometry x="450" y="1010" width="697" height="32" as="geometry" />
        </mxCell>
        <mxCell id="M4vAJLtBl9Fa8xEk3J6I-60" value="" style="endArrow=baseDash;html=1;rounded=0;startArrow=baseDash;startFill=0;endFill=0;strokeWidth=2;" edge="1" parent="M4vAJLtBl9Fa8xEk3J6I-59">
          <mxGeometry width="50" height="50" relative="1" as="geometry">
            <mxPoint x="165" as="sourcePoint" />
            <mxPoint x="36" as="targetPoint" />
          </mxGeometry>
        </mxCell>
        <mxCell id="M4vAJLtBl9Fa8xEk3J6I-61" value="&lt;b&gt;&lt;font style=&quot;font-size: 15px;&quot;&gt;t0&lt;/font&gt;&lt;/b&gt;" style="text;html=1;align=center;verticalAlign=middle;whiteSpace=wrap;rounded=0;" vertex="1" parent="M4vAJLtBl9Fa8xEk3J6I-59">
          <mxGeometry y="2" width="60" height="30" as="geometry" />
        </mxCell>
        <mxCell id="M4vAJLtBl9Fa8xEk3J6I-62" value="&lt;b&gt;&lt;font style=&quot;font-size: 15px;&quot;&gt;t1 =t0+60&lt;/font&gt;&lt;/b&gt;" style="text;html=1;align=center;verticalAlign=middle;whiteSpace=wrap;rounded=0;" vertex="1" parent="M4vAJLtBl9Fa8xEk3J6I-59">
          <mxGeometry x="134" y="2" width="92" height="30" as="geometry" />
        </mxCell>
        <mxCell id="M4vAJLtBl9Fa8xEk3J6I-63" value="" style="endArrow=baseDash;html=1;rounded=0;startArrow=baseDash;startFill=0;endFill=0;strokeWidth=2;exitX=0.335;exitY=-0.082;exitDx=0;exitDy=0;exitPerimeter=0;" edge="1" parent="M4vAJLtBl9Fa8xEk3J6I-59" source="M4vAJLtBl9Fa8xEk3J6I-64">
          <mxGeometry width="50" height="50" relative="1" as="geometry">
            <mxPoint x="295" as="sourcePoint" />
            <mxPoint x="166" as="targetPoint" />
          </mxGeometry>
        </mxCell>
        <mxCell id="M4vAJLtBl9Fa8xEk3J6I-69" value="&lt;b&gt;&lt;font style=&quot;font-size: 15px; color: rgb(130, 255, 26);&quot;&gt;t1&#39;&lt;/font&gt;&lt;/b&gt;" style="text;html=1;align=center;verticalAlign=middle;whiteSpace=wrap;rounded=0;" vertex="1" parent="M4vAJLtBl9Fa8xEk3J6I-59">
          <mxGeometry x="203" y="2" width="60" height="30" as="geometry" />
        </mxCell>
        <mxCell id="M4vAJLtBl9Fa8xEk3J6I-70" value="&lt;b&gt;&lt;font style=&quot;font-size: 15px; color: rgb(208, 177, 83);&quot;&gt;t1&#39;&#39;&lt;/font&gt;&lt;/b&gt;" style="text;html=1;align=center;verticalAlign=middle;whiteSpace=wrap;rounded=0;" vertex="1" parent="M4vAJLtBl9Fa8xEk3J6I-59">
          <mxGeometry x="278" y="2" width="60" height="30" as="geometry" />
        </mxCell>
        <mxCell id="M4vAJLtBl9Fa8xEk3J6I-65" value="" style="endArrow=baseDash;html=1;rounded=0;startArrow=classic;startFill=1;endFill=0;strokeWidth=2;dashed=1;" edge="1" parent="M4vAJLtBl9Fa8xEk3J6I-59">
          <mxGeometry width="50" height="50" relative="1" as="geometry">
            <mxPoint x="661" as="sourcePoint" />
            <mxPoint x="477" as="targetPoint" />
          </mxGeometry>
        </mxCell>
        <mxCell id="M4vAJLtBl9Fa8xEk3J6I-66" value="&lt;b&gt;&lt;font style=&quot;font-size: 15px;&quot;&gt;tn = t(n-1)+60&lt;/font&gt;&lt;/b&gt;" style="text;html=1;align=center;verticalAlign=middle;whiteSpace=wrap;rounded=0;" vertex="1" parent="M4vAJLtBl9Fa8xEk3J6I-59">
          <mxGeometry x="461" y="2" width="101" height="30" as="geometry" />
        </mxCell>
        <mxCell id="M4vAJLtBl9Fa8xEk3J6I-67" value="" style="endArrow=baseDash;html=1;rounded=0;startArrow=baseDash;startFill=0;endFill=0;strokeWidth=2;dashed=1;" edge="1" parent="M4vAJLtBl9Fa8xEk3J6I-59">
          <mxGeometry width="50" height="50" relative="1" as="geometry">
            <mxPoint x="477" as="sourcePoint" />
            <mxPoint x="348" as="targetPoint" />
          </mxGeometry>
        </mxCell>
        <mxCell id="M4vAJLtBl9Fa8xEk3J6I-68" value="&lt;b&gt;&lt;font style=&quot;font-size: 15px;&quot;&gt;t&lt;/font&gt;&lt;/b&gt;" style="text;html=1;align=center;verticalAlign=middle;whiteSpace=wrap;rounded=0;" vertex="1" parent="M4vAJLtBl9Fa8xEk3J6I-59">
          <mxGeometry x="637" width="60" height="30" as="geometry" />
        </mxCell>
        <mxCell id="M4vAJLtBl9Fa8xEk3J6I-71" value="&lt;b&gt;&lt;font style=&quot;font-size: 15px; color: rgb(255, 51, 51);&quot;&gt;t2&#39;&lt;/font&gt;&lt;/b&gt;" style="text;html=1;align=center;verticalAlign=middle;whiteSpace=wrap;rounded=0;" vertex="1" parent="M4vAJLtBl9Fa8xEk3J6I-59">
          <mxGeometry x="393" y="1" width="60" height="30" as="geometry" />
        </mxCell>
        <mxCell id="M4vAJLtBl9Fa8xEk3J6I-76" value="" style="shape=flexArrow;endArrow=classic;html=1;rounded=0;fillColor=#f8cecc;strokeColor=#b85450;" edge="1" parent="M4vAJLtBl9Fa8xEk3J6I-59">
          <mxGeometry width="50" height="50" relative="1" as="geometry">
            <mxPoint x="421" y="-65" as="sourcePoint" />
            <mxPoint x="421" y="-2" as="targetPoint" />
          </mxGeometry>
        </mxCell>
        <mxCell id="M4vAJLtBl9Fa8xEk3J6I-77" value="RESET" style="text;html=1;align=center;verticalAlign=middle;whiteSpace=wrap;rounded=0;fillColor=#f8cecc;strokeColor=#b85450;fontStyle=1" vertex="1" parent="M4vAJLtBl9Fa8xEk3J6I-59">
          <mxGeometry x="382" y="-101" width="74" height="30" as="geometry" />
        </mxCell>
        <mxCell id="M4vAJLtBl9Fa8xEk3J6I-64" value="&lt;b&gt;&lt;font style=&quot;font-size: 15px;&quot;&gt;t2=t1+60&lt;/font&gt;&lt;/b&gt;" style="text;html=1;align=center;verticalAlign=middle;whiteSpace=wrap;rounded=0;" vertex="1" parent="M4vAJLtBl9Fa8xEk3J6I-59">
          <mxGeometry x="317" y="2" width="92" height="30" as="geometry" />
        </mxCell>
        <mxCell id="M4vAJLtBl9Fa8xEk3J6I-72" value="" style="shape=flexArrow;endArrow=classic;html=1;rounded=0;fillColor=#d5e8d4;strokeColor=#82b366;" edge="1" parent="1">
          <mxGeometry width="50" height="50" relative="1" as="geometry">
            <mxPoint x="684" y="945" as="sourcePoint" />
            <mxPoint x="684" y="1008" as="targetPoint" />
          </mxGeometry>
        </mxCell>
        <mxCell id="M4vAJLtBl9Fa8xEk3J6I-73" value="CALL" style="text;html=1;align=center;verticalAlign=middle;whiteSpace=wrap;rounded=0;fillColor=#d5e8d4;strokeColor=#82b366;fontStyle=1" vertex="1" parent="1">
          <mxGeometry x="652" y="909" width="60" height="30" as="geometry" />
        </mxCell>
        <mxCell id="M4vAJLtBl9Fa8xEk3J6I-74" value="" style="shape=flexArrow;endArrow=classic;html=1;rounded=0;fillColor=#fff2cc;strokeColor=#d6b656;" edge="1" parent="1">
          <mxGeometry width="50" height="50" relative="1" as="geometry">
            <mxPoint x="756" y="945" as="sourcePoint" />
            <mxPoint x="756" y="1008" as="targetPoint" />
          </mxGeometry>
        </mxCell>
        <mxCell id="M4vAJLtBl9Fa8xEk3J6I-75" value="ENDCALL" style="text;html=1;align=center;verticalAlign=middle;whiteSpace=wrap;rounded=0;fillColor=#fff2cc;strokeColor=#d6b656;fontStyle=1" vertex="1" parent="1">
          <mxGeometry x="717" y="909" width="74" height="30" as="geometry" />
        </mxCell>
      </root>
    </mxGraphModel>
  </diagram>
</mxfile>
